<mxfile host="app.diagrams.net" modified="2024-06-02T03:31:42.611Z" agent="Mozilla/5.0 (Windows NT 10.0; Win64; x64) AppleWebKit/537.36 (KHTML, like Gecko) Chrome/125.0.0.0 Safari/537.36" version="24.4.13" etag="QfQDaPUaTCQIZzMYCher" type="github">
  <diagram name="Page-1" id="Gzm9LkQqBnEndo5cmaEe">
    <mxGraphModel>
      <root>
        <mxCell id="0" />
        <mxCell id="1" parent="0" />
      </root>
    </mxGraphModel>
  </diagram>
</mxfile>
